<svg width="13" height="11" viewBox="0 0 13 11" fill="none" xmlns="http://www.w3.org/2000/svg">
<path d="M12.7345 5.4599L8.40083 1.12618C8.27713 1.00247 8.11225 0.93457 7.93645 0.93457C7.76045 0.93457 7.59567 1.00257 7.47196 1.12618L7.0785 1.51974C6.9549 1.64325 6.8868 1.80822 6.8868 1.98412C6.8868 2.15993 6.9549 2.33046 7.0785 2.45397L9.60668 4.98771H1.57456C1.21241 4.98771 0.92627 5.27122 0.92627 5.63346V6.18984C0.92627 6.55208 1.21241 6.86418 1.57456 6.86418H9.63536L7.0786 9.41206C6.95499 9.53577 6.8869 9.69625 6.8869 9.87216C6.8869 10.0479 6.95499 10.2107 7.0786 10.3343L7.47206 10.7266C7.59577 10.8503 7.76055 10.9177 7.93655 10.9177C8.11235 10.9177 8.27722 10.8494 8.40093 10.7257L12.7345 6.39209C12.8585 6.26799 12.9267 6.10233 12.9263 5.92624C12.9266 5.74956 12.8585 5.5838 12.7345 5.4599Z" fill="white"/>
</svg>
