<svg width="65" height="65" viewBox="0 0 65 65" fill="none" xmlns="http://www.w3.org/2000/svg">
<g clip-path="url(#clip0_5_133)">
<path d="M32.7345 32.4599L28.4008 28.1262C28.2771 28.0025 28.1123 27.9346 27.9364 27.9346C27.7604 27.9346 27.5957 28.0026 27.472 28.1262L27.0785 28.5197C26.9549 28.6432 26.8868 28.8082 26.8868 28.9841C26.8868 29.1599 26.9549 29.3305 27.0785 29.454L29.6067 31.9877H21.5746C21.2124 31.9877 20.9263 32.2712 20.9263 32.6335V33.1898C20.9263 33.5521 21.2124 33.8642 21.5746 33.8642H29.6354L27.0786 36.4121C26.955 36.5358 26.8869 36.6963 26.8869 36.8722C26.8869 37.0479 26.955 37.2107 27.0786 37.3343L27.4721 37.7266C27.5958 37.8503 27.7605 37.9177 27.9365 37.9177C28.1123 37.9177 28.2772 37.8494 28.4009 37.7257L32.7345 33.3921C32.8585 33.268 32.9267 33.1023 32.9263 32.9262C32.9266 32.7496 32.8585 32.5838 32.7345 32.4599Z" fill="white"/>
</g>
<path d="M52.2808 19.8546C49.5772 15.5847 45.5691 12.3002 40.8513 10.4884C36.1334 8.67648 30.9571 8.43382 26.0904 9.79637C21.2237 11.1589 16.926 14.0541 13.8348 18.0523C10.7436 22.0505 9.02365 26.9387 8.9302 31.9916C8.83675 37.0446 10.3748 41.9931 13.316 46.1028C16.2573 50.2126 20.445 53.2647 25.258 54.8062C30.071 56.3478 35.2527 56.2967 40.0344 54.6605C44.816 53.0243 48.9428 49.8902 51.8024 45.7233L50.2299 44.6441C47.6023 48.4729 43.8105 51.3527 39.4169 52.8561C35.0233 54.3594 30.2621 54.4064 25.8398 52.99C21.4174 51.5735 17.5695 48.7691 14.8669 44.9929C12.1644 41.2167 10.7512 36.6698 10.8371 32.0269C10.9229 27.384 12.5032 22.8925 15.3436 19.2188C18.1839 15.5451 22.1329 12.8849 26.6046 11.6329C31.0763 10.381 35.8325 10.6039 40.1675 12.2687C44.5025 13.9336 48.1853 16.9515 50.6695 20.8749L52.2808 19.8546Z" fill="white"/>
<defs>
<clipPath id="clip0_5_133">
<rect width="12" height="12" fill="white" transform="translate(20.9263 26.9261)"/>
</clipPath>
</defs>
</svg>
